inDegrees=no
num_controls=7
num_derivatives=13
num_iterations=195
num_multipliers=7
num_parameters=0
num_slacks=7
num_states=26
objective=0.509643
objective_accelerations=0.039518
objective_balance=0.003580
objective_effort=0.029182
objective_height=0.324430
objective_ligament=0.112933
solver_duration=3014.878905
status=Solve_Succeeded
success=true
DataType=double
version=3
OpenSimVersion=4.5
endheader
time	/jointset/ground_pelvis/pelvis_tilt/value	/jointset/ground_pelvis/pelvis_tx/value	/jointset/ground_pelvis/pelvis_ty/value	/jointset/hip_l/hip_flexion_l/value	/jointset/hip_l/hip_adduction_l/value	/jointset/hip_l/hip_rotation_l/value	/jointset/back/lumbar_extension/value	/jointset/patellofemoral_l/patellar_flexion_l/value	/jointset/knee_l/knee_flexion_l/value	/jointset/knee_l/knee_adduction_l/value	/jointset/knee_l/knee_rotation_l/value	/jointset/ankle_l/ankle_angle_l/value	/jointset/subtalar_l/subtalar_angle_l/value	/jointset/ground_pelvis/pelvis_tilt/speed	/jointset/ground_pelvis/pelvis_tx/speed	/jointset/ground_pelvis/pelvis_ty/speed	/jointset/hip_l/hip_flexion_l/speed	/jointset/hip_l/hip_adduction_l/speed	/jointset/hip_l/hip_rotation_l/speed	/jointset/back/lumbar_extension/speed	/jointset/patellofemoral_l/patellar_flexion_l/speed	/jointset/knee_l/knee_flexion_l/speed	/jointset/knee_l/knee_adduction_l/speed	/jointset/knee_l/knee_rotation_l/speed	/jointset/ankle_l/ankle_angle_l/speed	/jointset/subtalar_l/subtalar_angle_l/speed	/forceset/tau_hip_flexion_l	/forceset/tau_hip_adduction_l	/forceset/tau_hip_rotation_l	/forceset/tau_knee_flexion_l	/forceset/tau_ankle_angle_l	/forceset/tau_subtalar_angle_l	/forceset/tau_lumbar_extension	lambda_cid13_p0	lambda_cid13_p1	lambda_cid13_p2	lambda_cid13_p3	lambda_cid13_p4	lambda_cid13_p5	lambda_cid14_p0	/jointset/ground_pelvis/pelvis_tilt/accel	/jointset/ground_pelvis/pelvis_tx/accel	/jointset/ground_pelvis/pelvis_ty/accel	/jointset/hip_l/hip_flexion_l/accel	/jointset/hip_l/hip_adduction_l/accel	/jointset/hip_l/hip_rotation_l/accel	/jointset/back/lumbar_extension/accel	/jointset/patellofemoral_l/patellar_flexion_l/accel	/jointset/knee_l/knee_flexion_l/accel	/jointset/knee_l/knee_adduction_l/accel	/jointset/knee_l/knee_rotation_l/accel	/jointset/ankle_l/ankle_angle_l/accel	/jointset/subtalar_l/subtalar_angle_l/accel	gamma_cid13_p0	gamma_cid13_p1	gamma_cid13_p2	gamma_cid13_p3	gamma_cid13_p4	gamma_cid13_p5	gamma_cid14_p0
1.5	-0.00994889644354593	-0.02454383492701217	0.8759577747310455	0.6038117912924965	-0.2910772354222401	-0.2082876523764373	-0.7814890643658782	0.5989429527464767	0.5989429527464631	-0.06640392162360804	-0.1726517812917633	0.06039639967155546	0.02588952600687585	0.435924738280779	0.2354359955269303	0.3276440543424927	-1.816449304597288	0.1971717185544909	-0.5856060206743443	0.8459976813491888	-1.633289428433816	-1.633289428433977	0.06906099902673686	-0.01029891192757306	-0.2856097167672627	0.1166776322188048	-0.2035760018144721	0.04540774307183475	-0.007740934931659779	-0.17034212128365	0.09856386193088101	0.02377263815115441	0.2781994112972733	-11.22509024585839	-9.976626989958346	2.983930639548201	-8.385884591056588	-667.5309678393912	-58.17382358677211	-21.04592770545998	0.1799801530840019	0.6341423216490343	-0.5503640693471472	-0.2663297580905996	0.4377533101828178	0.2817652790342162	1.648259824414871	0.2113458004930551	0.2113458004930525	-0.07567496928922635	-0.001337932868344836	0.5666782325318539	0.6211162844363615	1.488650678700101e-07	5.443164363400591e-07	-6.961399150178703e-07	3.665287025230686e-08	1.373193642292703e-07	2.038404125824058e-07	1.599319661381834e-07
1.51	-0.005581217759167761	-0.02215795231045779	0.8792062636020188	0.5856354554560375	-0.2890848144344021	-0.214128856304983	-0.7729476383064774	0.5826220479144301	0.5826220479144747	-0.06571922367578628	-0.1727553619008272	0.05756871457661979	0.02708608438754724	0.4375469015538921	0.2417196748003463	0.3220103318574828	-1.818628023320841	0.2012632141442406	-0.5825650667346199	0.8621993076552685	-1.630720728710789	-1.630720728710891	0.06781826092213343	-0.01041145486290022	-0.279888538787036	0.1225941021881982	-0.1959002744485117	0.04395524363215441	-0.007737131026861109	-0.1690109462333692	0.1002454500255012	0.02269377615288326	0.271427974334023	-10.56280424853268	-9.662482245451589	2.977758836711981	-8.439136718453847	-664.6333828760481	-58.27634333264105	-21.45600195019868	0.1437371825909307	0.6223597705630735	-0.5763571135519377	-0.1651482032734616	0.3874698587451438	0.3258649702729821	1.592880602277195	0.305222336421482	0.3052223364302818	-0.1575680120213301	-0.01549025950863335	0.5806708857170707	0.5709178421415186	1.47025459829152e-07	5.30917740735396e-07	-6.884060360592335e-07	3.552193178165703e-08	1.37186886688159e-07	2.069907440000621e-07	1.570451312037867e-07
1.52	-0.001199236888433661	-0.019709857093094	0.8823971190930472	0.5674430313775781	-0.2870529540556011	-0.2199375297903665	-0.7642468426703023	0.5663319481352516	0.5663319481353656	-0.06504875206518791	-0.1728599234963783	0.05479940792247524	0.02834060856570236	0.438785175553664	0.2478785156888121	0.3161173783535136	-1.819666952995814	0.2050595967489769	-0.5790999320416462	0.8778715967042579	-1.627128417859204	-1.627128417859248	0.06621573157851153	-0.01049510922397597	-0.2739340286088486	0.1282707917156223	-0.1882245470825712	0.04250274419244003	-0.007733327122008938	-0.1676797711831011	0.1019270381201073	0.02161491415457022	0.2646565373707681	-9.903806815136035	-9.348281990715321	2.972173099999209	-8.527030513456102	-661.8063512122985	-58.41768388399402	-21.83450770859101	0.1032022984157007	0.6091746446590316	-0.6022102731390144	-0.03837194837437558	0.3787307131801254	0.3666014296840528	1.542392372996716	0.4160680262045104	0.4160680262045043	-0.1476332170928959	0.004439781981925592	0.6133446721240003	0.5731601960424998	1.457878035410406e-07	5.174016787989969e-07	-6.807310415762227e-07	3.343858618128489e-08	1.396255646075125e-07	2.099970392380828e-07	1.541440019968223e-07
1.53	0.003193165987954212	-0.01720086847342407	0.8855277905142627	0.549245954640086	-0.2849846224946384	-0.2257094564227151	-0.7553920941550082	0.5500828325344317	0.5500828325345186	-0.06439608031756579	-0.1729650807106878	0.05209072005655303	0.02965066481825345	0.4396261094133377	0.2538909429742277	0.3099772235755757	-1.819550486244271	0.2085533841195048	-0.5752187488384608	0.8929781021006528	-1.622525551151372	-1.622525551151277	0.06425883432531505	-0.01052745527303629	-0.2677734501910405	0.1336943335839781	-0.1803779059111383	0.04090670656184741	-0.007728356532433298	-0.1665038251274935	0.1036186905436405	0.0204256222703573	0.2577228534799725	-9.255903153100201	-8.982022241050551	2.955822831519416	-8.510855934908639	-659.057281115857	-58.50800862035528	-22.1790964485033	0.06416226319969712	0.5930427171814174	-0.6258409143844872	0.06636086936707289	0.3267141701035862	0.4090180016806391	1.479778984790757	0.5077387329149693	0.5077387329358203	-0.2286368103896972	-0.005877444454760536	0.6219471642145503	0.5200316563711166	1.451897209902227e-07	5.037609151351287e-07	-6.731186118485649e-07	3.03433080055828e-08	1.447960952036099e-07	2.128502960352406e-07	1.512276851252548e-07
1.54	0.007591902869622684	-0.01463260239156006	0.8885958758208461	0.5310559835465916	-0.2828829507757551	-0.2314405429758255	-0.7463892807133852	0.5338848141486521	0.5338848141487272	-0.06376476130864933	-0.1730703225147153	0.04944454452232899	0.03101357258431561	0.4400519766112911	0.2597340081276276	0.3036001554271091	-1.818245824194775	0.2117276283346332	-0.5709319161934886	0.907484581970246	-1.616908974849845	-1.616908974849612	0.06194518383385013	-0.01051202716628576	-0.2614315622690177	0.1388410944178967	-0.1725312647397284	0.03931066893121868	-0.007723385942786034	-0.1653278790719005	0.1053103429671578	0.01923633038609699	0.2507891695891708	-8.611377444875608	-8.615236979900939	2.939464698867473	-8.527777498279733	-656.3766983133798	-58.6345586109073	-22.48756507140794	0.02018896607158737	0.5753022182559434	-0.6495929472447652	0.1992671112164516	0.3148220821002228	0.4477313180413567	1.422387267636334	0.6188099449433488	0.6188099449433477	-0.2189838647465597	0.01399461314408195	0.6496065729669788	0.51780398915506	1.470159094822422e-07	4.914436202261391e-07	-6.656668563065935e-07	2.319173093709578e-08	1.620995575019675e-07	2.149390365104284e-07	1.483615950187112e-07
1.55	0.01199292133812787	-0.01200681396906278	0.8915990692026364	0.5128848464888677	-0.2807511592946845	-0.2371267646696085	-0.7372446719124534	0.5177479431754767	0.5177479431755647	-0.06315836174761159	-0.1731750866561936	0.04686261621616274	0.03242652340202917	0.4400829179992176	0.2653890099738824	0.297002143909573	-1.815776010411221	0.2145721392061224	-0.566248203798662	0.9213216420752013	-1.610285431695235	-1.610285431695191	0.05927743163359045	-0.01043186228578247	-0.2549251760449764	0.1436982011023561	-0.1645265880645445	0.03755121194135399	-0.007716704940017439	-0.1643380782081195	0.1070798985953014	0.01794626615811218	0.2437108563166248	-7.956341116546898	-8.203397348864376	2.912348703269899	-8.473782065349452	-653.7927552891738	-58.72229273981569	-22.75824300832724	-0.01575788976056788	0.555400167670143	-0.6703196548946979	0.3016935358761408	0.2604941213589004	0.4884643423438748	1.347034960688961	0.7110659156507512	0.7110659156224481	-0.2992206663795199	0.006234016580518179	0.6555128666629307	0.4620344917514327	1.516352798279657e-07	4.806511914912486e-07	-6.584002253698696e-07	1.136659210083508e-08	1.933822671964067e-07	2.161469212233466e-07	1.455533748805647e-07
